<svg width="28" height="20" viewBox="0 0 28 20" fill="none" xmlns="http://www.w3.org/2000/svg">
<path d="M24.8908 6.84422L21.7921 11.6868C21.505 12.1355 20.7939 12.0538 20.5068 11.605V11.605V11.605C19.4979 10.0267 19.4981 8.00587 20.5073 6.42771L22.0703 3.98369C22.4287 3.42565 22.954 3.13478 23.4821 3.13478C23.883 3.13478 24.2836 3.29946 24.6176 3.63979C24.9943 4.02218 25.2279 4.56518 25.2795 5.16935C25.3311 5.7771 25.1945 6.37006 24.8908 6.84422ZM17.5919 16.8664C17.578 16.8678 17.5636 16.8682 17.5492 16.868C17.4906 16.8669 17.4315 16.862 17.3733 16.8552V16.8552C16.8936 16.7902 16.4625 16.4919 16.1589 16.0175L14.1064 12.8131L10.2872 6.84422C9.98356 6.37006 9.84673 5.7771 9.89855 5.16935C9.95016 4.56518 10.1839 4.02218 10.5602 3.63979C10.8853 3.31094 11.283 3.13478 11.6927 3.13478C11.7595 3.13478 11.8233 3.13886 11.8903 3.14625C12.37 3.21151 12.8039 3.50952 13.1076 3.98369L16.3289 9.0162L17.5889 10.9893L18.9764 13.1575C19.2466 13.5779 19.3774 14.0829 19.3774 14.5876C19.3774 15.2527 19.1464 15.9145 18.7034 16.3619C18.4208 16.6446 18.0899 16.8167 17.7377 16.8552C17.6891 16.8629 17.6407 16.8664 17.5919 16.8664ZM12.1542 14.8324C12.1026 15.4365 11.8658 15.9795 11.4893 16.3619C11.113 16.7443 10.6422 16.92 10.1595 16.8552C9.67994 16.7902 9.24861 16.4919 8.94499 16.0175L3.07329 6.84422C2.44764 5.86505 2.56908 4.42752 3.34654 3.63979C3.67121 3.31094 4.06894 3.13478 4.47882 3.13478C4.54562 3.13478 4.60937 3.13886 4.67617 3.14625C5.15588 3.21151 5.59025 3.50952 5.89387 3.98369L11.7627 13.1575C12.0664 13.6317 12.206 14.2241 12.1542 14.8324ZM27.2349 4.9055C27.1254 3.64336 26.6336 2.50766 25.8503 1.71229C24.229 0.0680096 21.8486 0.389472 20.5433 2.43118V2.43118C19.1643 4.58553 16.0157 4.58622 14.6378 2.43118V2.43118C14.0034 1.44105 13.1015 0.821573 12.0998 0.687737C11.0976 0.550076 10.1139 0.913092 9.32755 1.71229C9.13587 1.90711 8.96323 2.12073 8.80994 2.34945C8.49302 2.82234 7.73103 2.9106 7.42409 2.43118V2.43118C6.78933 1.44105 5.88759 0.821573 4.88567 0.687737C3.88394 0.550076 2.90003 0.913092 2.11366 1.71229C0.492563 3.35657 0.237324 6.35476 1.54287 8.39673L7.41478 17.57C8.04629 18.5607 8.94803 19.1801 9.95016 19.3137C10.0866 19.3328 10.2262 19.3407 10.36 19.3407C11.2193 19.3407 12.0449 18.9775 12.722 18.2892C12.9128 18.0957 13.086 17.8827 13.2403 17.6531C13.5576 17.181 14.3218 17.0911 14.6287 17.57V17.57C15.2602 18.5607 16.1619 19.1801 17.1638 19.3137C17.2064 19.3214 17.2521 19.3254 17.2944 19.3254C17.3399 19.3293 17.3855 19.3328 17.4312 19.3369C17.4889 19.3407 17.5494 19.3407 17.6073 19.3407C17.7043 19.3407 17.7986 19.3369 17.8956 19.3254C17.9848 19.3158 18.0729 19.301 18.1605 19.2831C19.0671 19.1149 19.9294 18.5354 20.5491 17.57L26.4213 8.39673C27.0528 7.41016 27.341 6.16739 27.2349 4.9055Z" fill="white"/>
<ellipse cx="25.905" cy="16.9665" rx="1.90503" ry="1.96648" fill="white"/>
<path d="M26.7942 17.1106L25.9038 16.2212L25.0134 17.1106L25.9038 18.0001L26.7942 17.1106Z" fill="#BD38C6"/>
<path d="M26.1134 16.6544C26.1134 17.0104 25.8245 17.2991 25.4681 17.2991C25.1117 17.2991 24.8228 17.0104 24.8228 16.6544C24.8228 16.2984 25.1117 16.0098 25.4681 16.0098C25.8245 16.0098 26.1134 16.2984 26.1134 16.6544V16.6544Z" fill="#BD38C6"/>
<path d="M26.9928 16.6447C26.9928 17.0007 26.7039 17.2893 26.3475 17.2893C25.9911 17.2893 25.7021 17.0007 25.7021 16.6447C25.7021 16.2886 25.9911 16 26.3475 16C26.7039 16 26.9928 16.2886 26.9928 16.6447V16.6447Z" fill="#BD38C6"/>
</svg>
