<svg width="216" height="152" viewBox="0 0 216 152" fill="none" xmlns="http://www.w3.org/2000/svg">
<path d="M196.752 50.3238L165.676 98.8886C164.566 95.4372 163.033 92.1081 161.083 89.0591L147.618 67.9958L173.803 27.0494C176.72 22.509 180.993 20.1424 185.29 20.1424C188.553 20.1424 191.812 21.4823 194.529 24.2513C197.594 27.3626 199.494 31.7806 199.914 36.6964C200.334 41.6413 199.223 46.4658 196.752 50.3238ZM137.366 131.868C137.02 131.901 136.649 131.868 136.304 131.806C136.058 131.839 135.836 131.806 135.587 131.777C131.684 131.248 128.176 128.821 125.706 124.961L109.007 98.8886L77.9316 50.3238C75.4613 46.4658 74.348 41.6413 74.7696 36.6964C75.1896 31.7806 77.0917 27.3626 80.1533 24.2513C82.7982 21.5757 86.0343 20.1424 89.3676 20.1424C89.911 20.1424 90.4298 20.1756 90.9749 20.2357C94.878 20.7667 98.4089 23.1914 100.879 27.0494L127.089 67.9958L137.341 84.0499L148.631 101.691C150.829 105.111 151.893 109.22 151.893 113.327C151.893 118.738 150.014 124.123 146.409 127.763C144.11 130.063 141.417 131.464 138.552 131.777C138.156 131.839 137.763 131.868 137.366 131.868ZM93.1225 115.318C92.7025 120.234 90.7756 124.652 87.7125 127.763C84.6509 130.875 80.8203 132.304 76.8925 131.777C72.991 131.248 69.4815 128.821 67.0112 124.961L19.2368 50.3238C14.1463 42.3568 15.1344 30.6606 21.4601 24.2513C24.1017 21.5757 27.3378 20.1424 30.6728 20.1424C31.2162 20.1424 31.735 20.1756 32.2785 20.2357C36.1816 20.7667 39.7158 23.1914 42.1861 27.0494L89.9374 101.691C92.4077 105.549 93.5441 110.369 93.1225 115.318ZM215.825 34.5496C214.934 24.2804 210.932 15.0399 204.559 8.56848C191.367 -4.80998 172 -2.19444 161.379 14.4177L137.341 51.9707L113.33 14.4177C108.168 6.36155 100.83 1.32129 92.6794 0.232351C84.5257 -0.887706 76.5219 2.06593 70.1238 8.56848C65.8995 12.862 62.8116 18.2777 60.9111 24.2182L54.6365 14.4177C49.4719 6.36155 42.135 1.32129 33.983 0.232351C25.8326 -0.887706 17.8271 2.06593 11.429 8.56848C-1.76089 21.9469 -3.8376 46.3413 6.78477 62.9555L54.5608 137.593C59.699 145.653 67.0359 150.693 75.1896 151.78C76.2996 151.936 77.4359 152 78.5245 152C85.5155 152 92.2331 149.044 97.7419 143.444C101.917 139.211 105.054 133.83 106.958 127.763L113.256 137.593C118.394 145.653 125.731 150.693 133.883 151.78C134.229 151.842 134.601 151.876 134.945 151.876C135.316 151.907 135.686 151.936 136.058 151.969C136.528 152 137.02 152 137.491 152C138.28 152 139.047 151.969 139.836 151.876C140.562 151.797 141.279 151.676 141.992 151.531C149.368 150.162 156.384 145.448 161.427 137.593L209.204 62.9555C214.343 54.9284 216.688 44.8168 215.825 34.5496Z" fill="#030303"/>
<ellipse cx="200.5" cy="136" rx="15.5" ry="16" fill="black"/>
<path d="M206.8 138.544L200.27 132.021L193.74 138.544L200.27 145.067L206.8 138.544Z" fill="white"/>
<path d="M201.807 135.188C201.807 137.799 199.688 139.916 197.075 139.916C194.461 139.916 192.342 137.799 192.342 135.188C192.342 132.577 194.461 130.46 197.075 130.46C199.688 130.46 201.807 132.577 201.807 135.188V135.188Z" fill="white"/>
<path d="M208.259 135.127C208.259 137.738 206.14 139.855 203.526 139.855C200.913 139.855 198.794 137.738 198.794 135.127C198.794 132.517 200.913 130.4 203.526 130.4C206.14 130.4 208.259 132.517 208.259 135.127V135.127Z" fill="white"/>
</svg>
