<svg width="373" height="358" viewBox="0 0 373 358" fill="none" xmlns="http://www.w3.org/2000/svg">
<rect width="373" height="358" fill="#FF7171"/>
<path d="M275.752 153.324L244.676 201.889C243.566 198.437 242.033 195.108 240.083 192.059L226.618 170.996L252.803 130.049C255.72 125.509 259.993 123.142 264.29 123.142C267.553 123.142 270.812 124.482 273.529 127.251C276.594 130.363 278.494 134.781 278.914 139.696C279.334 144.641 278.223 149.466 275.752 153.324ZM216.366 234.868C216.02 234.901 215.649 234.868 215.304 234.806C215.058 234.839 214.836 234.806 214.587 234.777C210.684 234.248 207.176 231.821 204.706 227.961L188.007 201.889L156.932 153.324C154.461 149.466 153.348 144.641 153.77 139.696C154.19 134.781 156.092 130.363 159.153 127.251C161.798 124.576 165.034 123.142 168.368 123.142C168.911 123.142 169.43 123.176 169.975 123.236C173.878 123.767 177.409 126.191 179.879 130.049L206.089 170.996L216.341 187.05L227.631 204.691C229.829 208.111 230.893 212.22 230.893 216.327C230.893 221.738 229.014 227.123 225.409 230.763C223.11 233.063 220.417 234.464 217.552 234.777C217.156 234.839 216.763 234.868 216.366 234.868ZM172.122 218.318C171.702 223.234 169.776 227.652 166.712 230.763C163.651 233.874 159.82 235.304 155.892 234.777C151.991 234.248 148.481 231.821 146.011 227.961L98.2368 153.324C93.1463 145.357 94.1344 133.661 100.46 127.251C103.102 124.576 106.338 123.142 109.673 123.142C110.216 123.142 110.735 123.176 111.278 123.236C115.182 123.767 118.716 126.191 121.186 130.049L168.937 204.691C171.408 208.549 172.544 213.369 172.122 218.318ZM294.825 137.55C293.934 127.28 289.932 118.04 283.559 111.568C270.367 98.19 251 100.806 240.379 117.418L216.341 154.971L192.33 117.418C187.168 109.362 179.83 104.321 171.679 103.232C163.526 102.112 155.522 105.066 149.124 111.568C144.9 115.862 141.812 121.278 139.911 127.218L133.637 117.418C128.472 109.362 121.135 104.321 112.983 103.232C104.833 102.112 96.8271 105.066 90.429 111.568C77.2391 124.947 75.1624 149.341 85.7848 165.956L133.561 240.593C138.699 248.653 146.036 253.693 154.19 254.78C155.3 254.936 156.436 255 157.525 255C164.516 255 171.233 252.044 176.742 246.444C180.917 242.211 184.054 236.83 185.958 230.763L192.256 240.593C197.394 248.653 204.731 253.693 212.883 254.78C213.229 254.842 213.601 254.876 213.945 254.876C214.316 254.907 214.686 254.936 215.058 254.969C215.528 255 216.02 255 216.491 255C217.28 255 218.047 254.969 218.836 254.876C219.562 254.797 220.279 254.676 220.992 254.531C228.368 253.162 235.384 248.448 240.427 240.593L288.204 165.956C293.343 157.928 295.688 147.817 294.825 137.55Z" fill="white"/>
<ellipse cx="279.5" cy="239" rx="15.5" ry="16" fill="white"/>
<path d="M285.8 241.544L279.27 235.021L272.74 241.544L279.27 248.067L285.8 241.544Z" fill="#FF7171"/>
<path d="M280.807 238.188C280.807 240.799 278.688 242.916 276.075 242.916C273.461 242.916 271.342 240.799 271.342 238.188C271.342 235.577 273.461 233.46 276.075 233.46C278.688 233.46 280.807 235.577 280.807 238.188Z" fill="#FF7171"/>
<path d="M287.259 238.127C287.259 240.738 285.14 242.855 282.526 242.855C279.913 242.855 277.794 240.738 277.794 238.127C277.794 235.517 279.913 233.4 282.526 233.4C285.14 233.4 287.259 235.517 287.259 238.127Z" fill="#FF7171"/>
</svg>
